<svg 
  class="img-fluid" 
  id="outputsvg" 
  xmlns="http://www.w3.org/2000/svg" 
  style="transform: matrix(1, 0, 0, 1, 16.8, 1.60001); transform-origin: 50% 50%; cursor: move; transition: transform 200ms ease-in-out 0s;" width="30" height="30" viewBox="0 0 3680 3680">
  <g id="l4BeojGGMWhGKdDMijcdN2t" fill="rgb(17,27,59)" style="transform: none;"><g style="transform: none;"><path id="pf2qFEwls" d="M1390 3490 c-657 -22 -825 -54 -864 -163 -6 -18 -2 -19 56 -12 35 3 99 12 143 20 119 22 288 43 495 62 274 25 1023 25 1285 0 206 -20 387 -48 504 -78 83 -21 131 -24 131 -9 0 21 -29 67 -52 82 -71 46 -236 72 -548 87 -305 15 -861 20 -1150 11z"></path><path id="pwEHQtzLI" d="M2194 2419 c3 -34 6 -70 6 -80 0 -15 8 -19 35 -19 l35 0 0 49 c0 27 -3 63 -6 80 -6 28 -10 31 -42 31 l-35 0 7 -61z"></path></g></g><g id="lk3FGzIYXeSSoLql7ReuZc" fill="rgb(16,32,84)" style="transform: none;"><g style="transform: none;"><path id="p148LdKv4F" d="M1460 3444 c-209 -9 -734 -63 -759 -78 -6 -4 -124 -18 -157 -19 -7 0 -16 -15 -22 -34 l-10 -33 46 0 c26 0 126 14 222 30 413 71 464 75 1030 74 471 0 528 -2 672 -21 168 -24 384 -69 514 -108 44 -14 97 -25 117 -25 34 0 37 2 37 29 0 38 -17 84 -29 77 -5 -3 -42 3 -82 13 -111 29 -297 58 -449 71 -74 7 -146 14 -160 17 -31 6 -854 12 -970 7z"></path><path id="pSBhfYgZC" d="M2193 2443 c4 -38 7 -83 7 -100 0 -31 2 -33 35 -33 l35 0 0 69 c0 38 -3 83 -6 100 -6 28 -10 31 -42 31 l-35 0 6 -67z m44 -80 c-3 -10 -5 -2 -5 17 0 19 2 27 5 18 2 -10 2 -26 0 -35z"></path></g></g><g id="l3kjV4tBZeUFbDkg5v3n253" fill="rgb(94,30,12)" style="transform: none;"><g style="transform: none;"><path id="pbj8HfBPF" d="M1790 3265 c0 -34 1 -35 40 -35 39 0 40 1 40 35 0 34 -1 35 -40 35 -39 0 -40 -1 -40 -35z"></path><path id="p11eTD7hKc" d="M1710 3155 c0 -33 2 -35 35 -35 33 0 35 2 35 35 0 33 -2 35 -35 35 -33 0 -35 -2 -35 -35z"></path><path id="p19MBBZEtt" d="M1660 3055 c0 -33 2 -35 35 -35 33 0 35 2 35 35 0 33 -2 35 -35 35 -33 0 -35 -2 -35 -35z"></path><path id="pN6gbwWga" d="M2470 1373 c-56 -341 -136 -483 -273 -483 -19 0 -89 11 -155 25 -150 31 -263 32 -392 4 -52 -11 -112 -23 -132 -26 -36 -5 -38 -8 -38 -41 l0 -35 53 7 c212 26 251 21 492 -64 109 -38 126 -42 187 -37 153 13 210 88 286 377 17 63 38 152 48 197 9 45 21 80 25 77 10 -6 12 59 3 105 -6 28 -10 31 -44 31 l-37 0 -23 -137z"></path><path id="pD0Onl2wn" d="M2280 565 c0 -41 2 -45 25 -45 20 0 25 5 25 26 0 14 5 34 10 45 10 17 7 19 -25 19 -35 0 -35 0 -35 -45z"></path></g></g><g id="l6HwnEnOy3f0DgvfIXuBWam" fill="rgb(18,38,108)" style="transform: none;"><g style="transform: none;"><path id="p8aqBv7X1" d="M1315 3414 c-188 -18 -362 -41 -540 -70 -116 -19 -220 -33 -232 -31 -23 4 -33 -14 -33 -65 0 -27 1 -28 59 -28 32 0 125 14 207 31 329 67 734 119 813 104 20 -4 189 -9 376 -10 292 -2 356 -6 455 -23 202 -37 344 -86 568 -196 50 -25 105 -46 121 -46 25 0 29 4 35 38 8 53 7 169 -2 155 -9 -15 -47 -10 -132 16 -110 34 -334 81 -493 103 -135 18 -210 21 -657 23 -278 2 -523 1 -545 -1z"></path><path id="p1BJyWfLhc" d="M1773 3285 c-7 -8 -13 -17 -13 -20 0 -4 -7 -13 -15 -21 -8 -9 -15 -31 -15 -50 0 -32 2 -34 34 -34 27 0 36 5 42 23 4 12 15 29 25 38 11 9 19 30 19 48 0 28 -3 31 -32 31 -18 -1 -39 -7 -45 -15z"></path><path id="p80bN0gFL" d="M2160 2589 c0 -39 20 -120 34 -138 6 -8 10 -44 9 -82 l-2 -69 34 0 33 0 7 63 c7 64 -3 126 -32 210 -16 43 -20 47 -50 47 -30 0 -33 -3 -33 -31z m79 -203 c1 -70 -5 -54 -12 29 -3 43 -2 60 3 45 4 -14 8 -47 9 -74z"></path><path id="p13mc0bB3A" d="M1400 2420 c0 -39 1 -40 35 -40 34 0 35 1 35 40 0 39 -1 40 -35 40 -34 0 -35 -1 -35 -40z"></path></g></g><g id="l7NlSM2ZQneqTATRZlOfaxV" fill="rgb(131,30,11)" style="transform: none;"><g style="transform: none;"><path id="pYSZLqikU" d="M1682 3125 c-7 -14 -12 -39 -12 -55 0 -27 3 -30 33 -30 38 0 57 27 57 80 0 27 -3 30 -33 30 -26 0 -36 -6 -45 -25z"></path><path id="pg4BG2x9U" d="M2388 993 c-9 -26 -16 -49 -14 -50 1 -2 15 19 30 47 19 34 23 50 14 50 -7 0 -21 -21 -30 -47z"></path><path id="pEGGP2KdZ" d="M2417 962 c-32 -92 -62 -136 -117 -173 -69 -46 -112 -46 -247 1 -205 72 -254 83 -378 78 l-110 -4 66 15 c44 11 65 20 62 29 -5 13 -73 17 -73 3 0 -5 -40 -12 -88 -15 -105 -9 -154 6 -202 60 -21 25 -38 34 -60 34 -28 0 -30 -3 -30 -34 0 -39 35 -88 80 -111 70 -36 121 -47 270 -55 166 -10 226 -23 365 -81 73 -31 89 -34 180 -33 122 0 196 25 257 86 58 58 78 108 78 201 0 101 -16 101 -53 -1z"></path><path id="pINFhrkw4" d="M2238 624 c-5 -4 -8 -26 -8 -49 0 -34 7 -51 38 -89 24 -30 45 -46 60 -46 12 0 22 5 22 11 0 25 -23 99 -31 99 -5 0 -9 7 -9 15 0 8 6 15 14 15 14 0 31 29 21 38 -8 9 -100 14 -107 6z"></path></g></g><g id="l3Xcr5dSqB4eWYH1O52poXV" fill="rgb(162,34,12)" style="transform: none;"><g style="transform: none;"><path id="p2Fr0lzzX" d="M1755 3253 c-14 -21 -25 -46 -25 -55 0 -10 -4 -18 -10 -18 -5 0 -10 -9 -10 -20 0 -11 -4 -20 -8 -20 -15 0 -32 -49 -32 -90 0 -39 1 -40 33 -40 32 0 34 3 47 50 7 28 17 50 22 50 4 0 8 8 8 18 0 19 54 54 73 46 17 -7 67 -123 67 -156 0 -25 4 -28 34 -28 34 0 35 1 42 47 6 42 3 54 -27 110 -19 35 -37 63 -41 63 -5 0 -8 5 -8 11 0 6 -9 24 -21 40 -18 25 -27 29 -69 29 -46 0 -51 -3 -75 -37z"></path><path id="p5x1KV1zw" d="M1900 2700 c0 -13 -12 -26 -36 -37 -35 -17 -36 -17 -87 10 -29 15 -65 27 -80 27 -24 0 -27 -4 -27 -33 0 -28 8 -38 65 -80 84 -60 105 -60 190 -1 61 43 65 48 65 84 0 41 -11 50 -61 50 -22 0 -29 -5 -29 -20z"></path><path id="pVOgZT6Am" d="M1725 2449 c-48 -14 -75 -45 -75 -86 l0 -36 78 8 c42 5 114 8 160 6 l82 -2 0 34 c0 31 -5 36 -53 60 -55 28 -130 35 -192 16z"></path><path id="p16OD5e0yp" d="M1140 1251 c0 -16 14 -83 31 -148 17 -65 37 -145 43 -179 29 -146 99 -184 344 -184 190 0 411 -67 499 -151 26 -25 83 -62 126 -83 65 -31 81 -43 95 -74 9 -20 17 -38 18 -40 1 -2 13 0 28 4 22 5 26 11 26 45 0 21 -4 38 -9 36 -14 -4 -82 85 -79 103 2 10 -18 38 -47 67 -43 43 -57 50 -100 56 -28 3 -87 20 -130 37 -144 58 -201 70 -365 80 -188 11 -265 34 -320 97 l-25 28 30 -27 c40 -36 96 -58 142 -57 35 0 36 1 16 11 -13 6 -23 15 -23 19 0 4 -17 11 -37 15 -21 3 -50 18 -65 32 -32 30 -76 132 -109 254 -24 88 -24 88 -56 88 -30 0 -33 -3 -33 -29z"></path></g></g><g id="l4Vo7FzfTTe969Yd9vLw7VB" fill="rgb(137,51,25)" style="transform: none;"><g style="transform: none;"><path id="p1HofFPQly" d="M1770 3275 c0 -8 -4 -15 -10 -15 -5 0 -10 -11 -10 -25 0 -16 -6 -25 -15 -25 -8 0 -15 -9 -15 -20 0 -11 -4 -20 -10 -20 -5 0 -10 -16 -10 -35 0 -34 13 -47 23 -22 4 10 6 10 6 0 2 -22 41 -15 41 7 0 11 5 20 10 20 6 0 10 11 10 25 0 16 6 25 15 25 8 0 15 5 15 10 0 14 -13 13 -28 -2 -7 -7 -12 -8 -12 -2 0 5 -5 2 -10 -6 -6 -9 -10 -10 -10 -3 0 6 7 18 15 27 8 8 15 17 15 21 0 14 31 37 44 32 7 -3 24 -20 36 -39 13 -18 17 -27 10 -20 -19 17 -40 15 -40 -3 0 -8 5 -15 10 -15 6 0 10 -7 10 -15 0 -8 7 -15 15 -15 8 0 15 -9 15 -19 0 -30 11 -51 26 -51 8 0 14 -10 14 -25 0 -14 5 -25 10 -25 13 0 13 36 0 61 -6 10 -8 19 -6 19 10 0 33 -55 29 -67 -3 -8 4 -13 16 -13 17 0 21 6 21 35 0 24 -5 35 -15 35 -8 0 -15 9 -15 19 0 30 -11 51 -26 51 -8 0 -14 10 -14 25 0 14 -4 25 -10 25 -5 0 -10 7 -10 15 0 8 -4 15 -10 15 -5 0 -10 7 -10 15 0 12 -13 15 -60 15 -47 0 -60 -3 -60 -15z"></path><path id="pOsKqHwfX" d="M1960 2506 c0 -28 5 -36 29 -46 41 -17 137 -114 158 -161 19 -41 44 -50 69 -25 49 49 -47 208 -152 252 -18 8 -49 14 -69 14 -33 0 -35 -2 -35 -34z"></path><path id="pyIud8VBq" d="M2490 1514 c0 -25 -55 -304 -71 -363 -22 -77 -58 -163 -71 -169 -5 -2 -8 -15 -8 -28 0 -18 -5 -24 -22 -24 -13 0 -32 -7 -42 -15 -11 -8 -28 -15 -38 -15 -11 0 -18 -7 -18 -20 0 -42 87 -14 138 44 65 75 105 191 142 419 13 75 26 137 30 137 16 0 21 -72 7 -94 -8 -12 -20 -49 -27 -81 -6 -33 -25 -110 -41 -171 -16 -61 -29 -135 -29 -165 -1 -146 -131 -260 -300 -263 l-65 -1 35 -23 c19 -13 51 -40 71 -60 20 -20 60 -59 89 -87 45 -42 48 -44 21 -12 -46 56 -36 83 24 64 16 -5 28 5 62 51 23 31 67 84 98 117 101 108 108 122 113 240 4 92 -9 276 -25 356 -5 24 -3 28 11 23 13 -5 16 0 16 26 0 17 -5 51 -11 76 -11 43 -13 44 -50 44 -22 0 -39 -3 -39 -6z"></path><path id="p12emKJZTT" d="M1096 1479 c-9 -48 -7 -107 4 -111 6 -2 22 -54 37 -116 l27 -112 34 0 35 0 -7 48 c-3 26 -16 108 -29 182 l-23 135 -36 3 c-33 3 -36 1 -42 -29z"></path><path id="pT8Qt7aVa" d="M1220 1002 c0 -35 9 -62 20 -62 8 0 -4 77 -14 87 -3 4 -6 -8 -6 -25z"></path><path id="pXnp9hHoE" d="M1252 999 c12 -35 88 -119 106 -119 7 0 12 11 12 25 0 18 -5 25 -20 25 -13 0 -20 7 -20 20 0 11 -6 23 -14 26 -8 3 -17 16 -20 30 -5 17 -13 24 -31 24 -23 0 -23 -2 -13 -31z"></path><path id="pkcu3Couv" d="M1608 916 c-88 -17 -108 -24 -108 -38 0 -23 4 -23 154 7 69 14 128 25 131 25 3 0 5 7 5 15 0 20 -47 18 -182 -9z"></path><path id="p59VHXvYC" d="M1880 925 c0 -8 3 -15 6 -15 3 0 60 -11 126 -25 144 -30 148 -30 148 -7 0 15 -19 22 -113 40 -135 26 -167 28 -167 7z"></path><path id="pwqLWfrWQ" d="M2245 501 c21 -22 45 -41 52 -41 25 0 -3 34 -49 59 l-43 24 40 -42z"></path></g></g><g id="l6zmcM7Q96ZK5TfWmGvKhkK" fill="rgb(27,58,152)" style="transform: none;"><g style="transform: none;"><path id="pN2wSZHSq" d="M1368 3380 c-130 -12 -410 -57 -602 -96 -204 -41 -233 -42 -246 -11 -7 16 -9 1 -7 -53 l2 -75 38 -3 c21 -2 80 8 130 22 102 28 185 45 551 111 l248 45 272 -6 c295 -5 409 -16 501 -44 173 -54 202 -63 230 -75 43 -18 170 -61 240 -80 102 -29 99 -28 273 -106 95 -43 106 -41 126 29 20 71 20 83 2 76 -7 -3 -56 16 -107 41 -224 111 -365 160 -569 197 -97 18 -158 22 -395 23 -154 1 -352 4 -440 8 -88 3 -199 2 -247 -3z"></path><path id="puOwWJ2dz" d="M1810 3285 c0 -10 -10 -15 -30 -15 -19 0 -30 -5 -30 -14 0 -8 -4 -16 -9 -18 -16 -6 -81 -148 -81 -178 0 -27 3 -30 33 -30 31 0 35 4 72 83 22 45 45 85 50 89 7 5 6 8 0 8 -6 0 -16 -5 -23 -12 -7 -7 -12 -8 -12 -3 0 5 -7 0 -16 -11 -8 -10 -5 0 7 24 13 24 29 48 36 53 19 17 46 2 72 -39 20 -31 21 -34 4 -19 -11 9 -28 17 -39 16 -10 0 -13 -3 -6 -6 6 -2 12 -11 12 -19 0 -8 7 -14 15 -14 9 0 15 -9 15 -25 0 -19 5 -25 21 -25 15 0 19 5 15 15 -12 31 4 13 30 -35 15 -27 31 -50 36 -50 4 0 8 16 8 35 0 28 -4 35 -20 35 -16 0 -20 7 -20 35 0 24 -5 35 -15 35 -9 0 -15 9 -15 25 0 14 -4 25 -10 25 -5 0 -10 5 -10 11 0 20 -29 39 -59 39 -21 0 -31 -5 -31 -15z m-94 -208 c-7 -20 -15 -34 -19 -31 -3 3 2 21 10 40 21 43 26 39 9 -9z"></path><path id="p4hN5tVdI" d="M1920 3098 c0 -27 4 -38 15 -38 19 0 19 17 0 50 l-14 25 -1 -37z"></path><path id="p8G0VOcIf" d="M2130 2673 c0 -42 53 -217 68 -227 11 -6 13 -24 7 -82 l-7 -74 36 0 c20 0 36 5 36 10 0 6 14 29 30 52 27 36 30 49 30 111 0 68 -23 139 -62 188 -20 24 -73 49 -108 49 -26 0 -30 -4 -30 -27z m104 -204 c10 -42 12 -78 6 -104 l-8 -40 -1 45 c-1 25 -8 76 -16 115 -17 81 -18 86 -5 64 5 -9 16 -45 24 -80z"></path><path id="p17Zf54GTG" d="M1410 2503 c-5 -21 -13 -68 -16 -105 l-7 -68 36 0 c34 0 36 2 42 38 4 20 11 53 16 72 5 19 9 50 9 68 0 30 -2 32 -35 32 -31 0 -35 -3 -45 -37z"></path></g></g><g id="l4lGAlAsHuxpexLnVvd9rwR" fill="rgb(28,64,169)" style="transform: none;"><g style="transform: none;"><path id="px5ghAFKQ" d="M1250 3314 c-448 -83 -510 -96 -599 -120 -74 -21 -98 -24 -117 -15 -19 8 -24 8 -24 -3 0 -50 34 -57 150 -31 36 8 212 40 393 70 180 30 353 62 384 70 58 15 234 20 291 9 27 -5 30 -9 22 -25 -12 -21 -13 -79 -2 -79 4 1 19 19 34 40 15 22 35 40 43 40 8 0 15 5 15 11 0 14 39 9 120 -15 44 -13 73 -32 142 -94 166 -150 258 -177 603 -174 163 2 225 -1 276 -14 76 -18 123 -16 127 6 1 10 -14 22 -45 34 -27 11 -77 33 -113 50 -63 31 -82 37 -200 72 -71 21 -197 63 -235 79 -28 12 -57 21 -230 75 -96 29 -209 39 -540 44 l-310 5 -185 -35z"></path><path id="ptmDqGxtC" d="M2130 2666 c0 -40 3 -46 21 -46 17 0 20 5 17 24 -5 25 -5 25 26 9 38 -20 49 -33 82 -101 21 -43 25 -64 22 -103 -5 -46 -4 -49 18 -49 18 0 23 7 29 39 8 46 -10 183 -27 211 -16 25 -77 50 -140 57 l-48 6 0 -47z"></path></g></g><g id="l3IThVCbOi6xD5JoVR6feat" fill="rgb(201,65,20)" style="transform: none;"><g style="transform: none;"><path id="pkbdMNl45" d="M1860 3187 c0 -19 7 -42 15 -51 8 -8 15 -22 15 -30 0 -9 5 -16 10 -16 6 0 10 -9 10 -20 0 -13 7 -20 20 -20 27 0 25 20 -5 80 -14 28 -23 50 -21 50 10 0 66 -112 61 -120 -4 -6 -1 -10 4 -10 6 0 11 16 11 35 0 19 -4 35 -10 35 -5 0 -10 9 -10 20 0 11 -4 20 -9 20 -5 0 -11 14 -14 30 -5 22 -12 30 -28 30 -16 0 -19 -4 -15 -17 6 -15 4 -15 -14 2 -20 18 -20 18 -20 -18z"></path><path id="pS5ROaI2c" d="M1670 3035 c0 -33 2 -35 35 -35 33 0 35 2 35 35 0 24 -5 35 -15 35 -8 0 -15 -8 -15 -17 -1 -17 -1 -17 -14 0 -20 25 -26 21 -26 -18z"></path><path id="pdxTrjIG3" d="M1730 2733 c-38 -7 -50 -22 -50 -64 0 -35 4 -41 40 -59 21 -11 49 -20 61 -20 20 0 20 2 -7 22 -47 35 -51 41 -17 24 18 -9 51 -16 75 -16 50 0 113 33 104 55 -3 9 0 12 10 8 24 -9 16 -21 -38 -58 -45 -30 -49 -35 -28 -35 14 0 40 9 58 20 27 17 32 26 32 57 0 21 -4 43 -8 49 -7 12 -189 24 -232 17z"></path><path id="puFlr8Lv6" d="M1860 2561 c0 -5 -27 -14 -60 -19 -33 -6 -81 -20 -107 -32 -29 -13 -49 -17 -51 -10 -2 5 -19 10 -38 10 -50 0 -124 -69 -124 -116 0 -30 3 -34 28 -34 26 0 27 -2 24 -40 -4 -40 -4 -40 30 -40 19 0 68 11 109 25 165 57 288 38 459 -70 33 -22 67 -35 87 -35 39 0 42 12 8 30 -29 16 -31 23 -9 45 14 14 15 22 5 56 -7 21 -16 39 -21 39 -6 0 -10 6 -10 13 0 6 -15 28 -33 47 -68 72 -119 110 -169 125 -57 17 -128 20 -128 6z m174 -65 c50 -21 114 -83 142 -138 13 -26 24 -53 24 -60 0 -7 -9 6 -21 29 -24 50 -110 138 -159 164 -42 22 -33 25 14 5z m-132 -100 l43 -26 -61 6 c-34 4 -92 1 -129 -5 -37 -7 -69 -10 -72 -8 -8 9 41 47 72 57 45 14 98 5 147 -24z"></path><path id="pkj1CV5R2" d="M2500 1660 l0 -50 34 0 c59 0 76 52 21 66 -14 3 -25 12 -25 20 0 8 -7 14 -15 14 -11 0 -15 -12 -15 -50z"></path><path id="puhHxbiJG" d="M1140 1692 c0 -4 -14 -13 -31 -19 -40 -16 -33 -37 14 -41 36 -3 37 -3 37 32 0 20 -4 36 -10 36 -5 0 -10 -4 -10 -8z"></path><path id="p17rzhFVVL" d="M2500 1496 c0 -19 5 -38 10 -41 6 -3 10 3 10 14 0 41 19 20 31 -34 13 -59 24 -74 41 -57 7 7 5 32 -7 81 -17 71 -17 71 -51 71 -32 0 -34 -2 -34 -34z"></path><path id="p1jDQlMc4" d="M1091 1463 c-15 -75 -14 -93 5 -93 13 0 14 -8 8 -47 -12 -75 -9 -271 5 -342 22 -114 66 -178 171 -247 59 -39 131 -54 265 -54 142 0 269 -14 320 -36 30 -12 42 -26 63 -74 30 -67 39 -72 149 -95 105 -21 132 -33 139 -61 5 -20 12 -24 48 -24 50 0 86 9 86 22 0 5 -4 7 -9 3 -6 -3 -19 15 -30 39 -17 40 -27 48 -98 82 -43 21 -99 58 -126 83 -88 84 -309 151 -499 151 -248 0 -319 40 -347 195 -5 33 -13 71 -17 85 -3 14 6 1 20 -28 49 -101 94 -142 175 -158 27 -6 31 -4 31 15 0 17 -6 21 -30 21 -16 0 -30 5 -30 10 0 6 -6 10 -13 10 -7 0 -18 9 -25 20 -7 11 -19 20 -27 20 -8 0 -15 9 -15 20 0 13 -7 20 -19 20 -15 0 -19 10 -23 51 -3 28 -10 54 -15 58 -6 3 -13 22 -15 41 -16 109 -53 295 -60 298 -4 2 -8 19 -8 38 0 32 -2 34 -34 34 -32 0 -33 -1 -45 -57z m69 -81 c6 -46 9 -87 6 -90 -3 -3 -6 6 -6 19 0 14 -9 42 -20 64 -14 28 -18 49 -14 73 9 49 20 28 34 -66z m59 -292 c0 -9 -4 -8 -9 5 -5 11 -9 27 -9 35 0 9 4 8 9 -5 5 -11 9 -27 9 -35z"></path><path id="pLgCfhJpI" d="M2442 1256 c-16 -83 -15 -106 2 -106 14 0 22 27 41 133 6 32 5 37 -12 37 -16 0 -22 -11 -31 -64z"></path><path id="pLT3qYnz5" d="M2396 1088 c-9 -36 -7 -78 5 -78 11 0 39 60 39 85 0 24 -37 18 -44 -7z"></path><path id="pbmJRxqVv" d="M1598 916 c-88 -17 -108 -24 -108 -38 0 -23 0 -23 150 7 69 14 126 25 128 25 1 0 2 7 2 15 0 20 -37 18 -172 -9z"></path><path id="pCagOSVlY" d="M1900 926 c0 -13 28 -26 58 -26 6 0 12 9 12 20 0 16 -7 20 -35 20 -23 0 -35 -5 -35 -14z"></path><path id="p19ZohaWqP" d="M2517 868 c-19 -24 -50 -59 -69 -79 -18 -20 -42 -46 -52 -58 l-19 -21 36 0 c26 0 37 4 37 15 0 8 6 15 13 15 25 0 101 96 112 143 11 42 -17 34 -58 -15z"></path><path id="p15dBpbFPC" d="M2100 886 c0 -13 28 -26 58 -26 6 0 12 9 12 20 0 16 -7 20 -35 20 -23 0 -35 -5 -35 -14z"></path></g></g><g id="l4QVD5uMkcl07aoi9vSHwfK" fill="rgb(32,76,182)" style="transform: none;"><g style="transform: none;"><path id="p12goUwOBB" d="M1402 3314 c-30 -8 -201 -39 -380 -69 -180 -30 -358 -62 -396 -70 -63 -14 -71 -14 -94 1 l-25 16 7 -38 c13 -72 14 -74 57 -74 22 0 91 12 152 27 111 27 115 27 488 28 304 0 379 -3 392 -14 25 -20 21 -81 -8 -153 -14 -34 -25 -74 -25 -90 0 -25 3 -28 33 -28 33 0 33 0 120 181 48 100 81 176 73 170 -7 -6 -15 -8 -18 -5 -8 8 -68 -121 -68 -148 -1 -20 -2 -21 -11 -6 -8 14 2 40 43 120 49 96 55 103 83 103 27 0 35 -9 87 -95 32 -52 56 -100 53 -107 -13 -38 113 -144 210 -177 84 -28 279 -48 465 -49 178 -1 238 7 361 43 67 20 71 23 90 66 24 56 24 54 -3 54 -13 0 -48 7 -78 15 -40 11 -95 15 -200 13 -207 -3 -283 1 -385 18 -115 20 -182 55 -293 156 -68 61 -99 82 -142 95 -107 32 -491 44 -588 17z"></path><path id="p5pyQ5Pjp" d="M1870 3182 c0 -25 4 -32 20 -32 16 0 20 -7 20 -35 0 -24 5 -35 15 -35 21 0 19 12 -11 67 -37 67 -44 72 -44 35z"></path><path id="pByaOlBms" d="M2112 2709 c5 -48 18 -68 45 -69 6 0 9 8 6 20 -5 17 -2 18 28 10 93 -27 105 -41 118 -135 10 -72 6 -88 -33 -145 -17 -24 -34 -51 -38 -60 -4 -8 -7 8 -7 35 -2 65 -10 95 -27 95 -9 0 -14 -12 -14 -35 0 -24 5 -35 15 -35 11 0 12 -5 5 -26 -6 -14 -10 -39 -10 -56 0 -29 2 -30 31 -24 34 7 166 97 189 130 31 46 122 134 155 152 34 18 36 22 33 63 -3 42 -5 44 -51 62 -26 11 -110 26 -186 34 -76 9 -153 20 -172 25 -18 6 -47 10 -63 10 -28 0 -29 0 -24 -51z"></path><path id="pBTI1GVRw" d="M1419 2548 c-16 -39 -24 -78 -27 -145 l-4 -93 35 0 35 0 11 64 c6 34 18 85 26 112 8 27 15 64 15 82 0 30 -2 32 -34 32 -31 0 -35 -4 -57 -52z m24 -113 c-15 -75 -29 -106 -18 -40 10 56 26 118 30 114 1 -2 -4 -35 -12 -74z"></path><path id="pUPDjdwd6" d="M2160 2555 c0 -28 4 -35 20 -35 21 0 24 10 14 48 -10 36 -34 27 -34 -13z"></path></g></g><g id="ljqmfSpgTpmK0UmiZ48PH8" fill="rgb(35,88,193)" style="transform: none;"><g style="transform: none;"><path id="pu8zfnmUE" d="M1860 3265 c0 -3 25 -47 55 -97 38 -65 53 -98 49 -114 -9 -34 68 -160 131 -216 23 -21 26 -27 13 -28 -38 0 -13 -111 26 -118 14 -3 17 1 11 17 -5 18 -3 19 26 11 18 -5 94 -16 170 -25 140 -15 232 -41 237 -66 1 -8 -13 -23 -33 -33 -33 -18 -123 -106 -155 -152 -8 -11 -42 -40 -75 -63 -33 -24 -66 -51 -72 -59 -11 -13 -13 -11 -13 17 0 19 -4 30 -10 26 -5 -3 -10 -22 -10 -41 0 -31 2 -34 31 -34 38 0 149 64 244 139 69 56 194 141 207 141 3 0 18 26 33 58 28 60 74 97 188 150 80 37 136 80 157 122 l19 38 -22 -3 c-12 -1 -63 -14 -113 -29 -157 -46 -332 -52 -584 -21 -137 17 -196 36 -269 83 -60 40 -92 80 -159 200 -26 46 -55 88 -64 93 -10 5 -18 7 -18 4z"></path><path id="pgwVfVELF" d="M1861 3215 c15 -38 83 -155 87 -151 6 7 -59 134 -76 149 -9 7 -13 8 -11 2z"></path><path id="pQTdLgSga" d="M825 3160 c-38 -5 -110 -18 -160 -30 -49 -12 -102 -19 -118 -16 -24 5 -28 3 -23 -10 3 -9 6 -22 6 -30 0 -21 111 -18 205 6 112 29 210 26 436 -14 107 -19 228 -39 269 -46 100 -16 140 -33 140 -60 0 -11 -11 -48 -25 -82 -14 -34 -25 -74 -25 -90 0 -25 3 -28 33 -28 30 0 36 4 54 48 74 169 101 292 38 172 -38 -72 -45 -75 -17 -8 26 61 27 140 3 169 l-19 24 -364 1 c-199 1 -394 -2 -433 -6z"></path><path id="pBYGUSVfH" d="M1417 2558 c-43 -85 -52 -158 -18 -158 14 0 21 10 26 38 7 37 45 135 51 130 1 -2 -6 -35 -17 -73 -21 -78 -24 -99 -9 -90 6 3 10 14 10 24 0 10 13 45 30 77 16 32 30 74 30 92 0 30 -2 32 -33 32 -30 0 -35 -5 -70 -72z"></path></g></g><g id="lXUj3YfkU7NyQBerRoqZsp" fill="rgb(46,97,195)" style="transform: none;"><g style="transform: none;"><path id="p5aZxumUi" d="M1867 3248 c79 -127 101 -173 96 -200 -4 -23 9 -60 60 -166 62 -128 146 -360 161 -444 6 -31 4 -38 -9 -38 -19 0 -19 -3 6 -52 13 -25 18 -49 15 -64 -4 -14 -2 -24 4 -24 5 0 10 4 10 9 0 5 15 13 33 16 74 16 218 70 310 116 233 116 402 272 496 457 12 24 20 46 17 50 -3 3 -29 -10 -58 -28 -29 -19 -86 -51 -126 -71 -133 -69 -158 -89 -187 -151 -15 -32 -30 -58 -33 -58 -13 0 -137 -85 -202 -137 -36 -29 -102 -74 -147 -102 -81 -48 -83 -49 -83 -24 0 13 -4 21 -10 18 -5 -3 -10 -2 -10 4 0 5 5 11 11 13 17 6 -3 109 -47 247 -19 62 -37 118 -40 125 -4 9 10 15 44 20 28 4 52 12 55 20 7 17 -1 26 -21 26 -21 0 -110 74 -141 117 -33 46 -61 95 -114 193 -57 108 -77 140 -88 140 -6 0 -7 -6 -2 -12z"></path><path id="p1ATjw4xEU" d="M1840 3212 c0 -4 4 -12 9 -17 5 -6 30 -46 55 -90 32 -56 46 -73 46 -57 0 45 -70 172 -95 172 -8 0 -15 -4 -15 -8z"></path><path id="p1Fg3W4WYq" d="M705 3110 c-80 -21 -156 -25 -172 -9 -14 14 0 -56 22 -108 l15 -35 82 7 c192 16 197 15 418 -57 113 -36 231 -74 264 -83 35 -10 72 -30 93 -49 34 -31 35 -33 24 -72 -6 -22 -22 -55 -37 -74 -47 -62 -84 -151 -84 -202 0 -61 50 -131 96 -136 31 -3 31 -3 43 68 14 88 61 237 112 354 22 49 39 97 39 107 0 10 6 24 14 31 37 38 63 138 35 138 -6 0 -28 -37 -50 -82 -22 -46 -37 -76 -35 -68 3 8 12 38 22 66 32 96 9 120 -136 144 -41 7 -162 27 -269 46 -232 41 -382 45 -496 14z m765 -578 c-11 -34 -25 -92 -32 -129 l-12 -68 -7 60 c-7 56 -6 64 29 132 20 40 37 71 39 70 1 -2 -6 -31 -17 -65z"></path><path id="p18NYHsRSb" d="M2140 2351 c0 -12 6 -21 15 -21 8 0 15 4 15 9 0 5 -7 14 -15 21 -13 10 -15 9 -15 -9z"></path></g></g><g id="l3BrEtT4gE6BGvJkzYIw4aj" fill="rgb(230,60,59)" style="transform: none;"><g style="transform: none;"><path id="pVRznho5k" d="M1804 3205 c-12 -8 -24 -12 -26 -9 -8 8 -68 -122 -68 -148 0 -18 -2 -20 -9 -9 -8 12 -12 10 -22 -12 -14 -32 -2 -100 37 -204 23 -61 23 -64 6 -81 -11 -9 -27 -22 -38 -28 -20 -12 -33 -84 -15 -84 5 0 22 -11 37 -25 15 -14 33 -25 40 -25 8 0 14 -4 14 -9 0 -5 28 -12 62 -16 51 -6 64 -5 73 9 7 9 17 16 24 16 6 0 11 5 11 10 0 6 7 10 15 10 8 0 15 7 15 15 0 8 9 15 20 15 34 0 27 57 -11 91 l-30 27 30 137 c23 102 28 141 21 156 -14 25 -28 24 -33 -3 -4 -19 -5 -18 -6 5 -1 32 -22 81 -58 140 -25 41 -53 48 -89 22z m44 -509 c26 -1 56 -6 66 -11 14 -6 17 -5 12 4 -6 9 -3 9 13 -1 12 -7 21 -16 21 -20 0 -3 -29 -27 -65 -52 l-65 -46 -63 46 c-34 25 -63 47 -65 48 -1 2 8 11 20 22 18 15 20 16 9 2 -18 -24 1 -23 30 1 13 11 28 17 32 14 5 -3 29 -6 55 -7z"></path><path id="pReWCsE6T" d="M2539 876 c-19 -22 -64 -69 -100 -105 -81 -80 -120 -139 -113 -167 5 -18 9 -17 48 20 23 23 66 64 95 91 35 32 65 72 83 112 38 80 32 101 -13 49z"></path></g></g><g id="l7IMmGxSmDeN6adIj2WWy2e" fill="rgb(212,100,49)" style="transform: none;"><g style="transform: none;"><path id="ptFG2wtXV" d="M1680 2952 c0 -15 5 -43 10 -62 6 -19 17 -61 25 -93 13 -55 12 -59 -6 -75 -10 -9 -19 -25 -19 -35 0 -18 3 -17 35 7 39 30 47 28 13 -4 -26 -24 -12 -27 20 -4 31 21 28 49 -15 181 -37 108 -63 145 -63 85z"></path><path id="pxSspgOOQ" d="M1957 2679 c8 -8 4 -18 -15 -35 l-27 -23 38 -1 c36 0 37 1 37 35 0 29 -4 35 -22 35 -16 0 -19 -3 -11 -11z"></path><path id="p14icdGUT" d="M1705 2566 c-133 -38 -189 -77 -244 -169 -18 -29 -22 -48 -18 -83 2 -25 9 -50 15 -56 7 -7 -6 -22 -46 -49 -31 -21 -75 -55 -97 -74 l-40 -36 50 4 c38 4 74 18 150 63 55 32 143 77 196 100 79 34 109 42 178 46 63 4 84 2 88 -9 3 -7 9 -13 14 -13 5 0 38 -13 74 -30 36 -16 68 -30 71 -30 3 0 48 -27 101 -60 74 -47 104 -60 134 -60 21 0 39 3 39 8 -1 11 -120 97 -170 122 -25 13 -63 35 -85 51 -75 52 -156 73 -285 73 -99 0 -125 -4 -189 -27 -41 -15 -75 -26 -77 -24 -1 1 16 30 39 65 35 52 52 68 102 93 33 16 87 34 120 40 33 6 63 16 66 21 9 15 134 -25 182 -57 l37 -26 0 31 c0 20 -5 30 -15 30 -8 0 -15 4 -15 9 0 23 -203 76 -233 60 -13 -8 -22 -8 -30 0 -14 14 -17 14 -112 -13z m-115 -99 c0 -2 -19 -21 -42 -42 l-43 -40 40 43 c36 39 45 47 45 39z"></path><path id="peXd1Hrxk" d="M2144 2409 c29 -34 56 -92 56 -118 0 -9 -9 2 -19 24 -22 49 -73 98 -95 93 -26 -5 28 -102 74 -132 35 -23 38 -23 52 -7 8 9 13 21 12 26 -1 6 -5 22 -8 38 -7 28 -71 107 -88 107 -5 0 2 -14 16 -31z"></path><path id="p1FQC8SBYN" d="M1135 1681 c-4 -13 -12 -17 -24 -14 -13 3 -23 -3 -31 -17 -15 -28 -1 -40 48 -40 31 0 32 2 32 39 0 43 -15 63 -25 32z"></path><path id="ptkqMyeMz" d="M2513 1679 c-8 -8 -13 -38 -13 -71 l0 -58 34 0 c29 0 34 4 40 30 3 18 12 30 21 30 21 0 19 24 -5 45 -19 17 -21 17 -39 1 -19 -17 -20 -17 -23 9 -2 21 -5 24 -15 14z"></path><path id="pxAeflEvJ" d="M2500 1516 c0 -13 -4 -26 -8 -28 -8 -3 -72 -319 -72 -357 0 -11 6 -21 14 -21 16 0 19 14 61 235 15 77 30 144 35 149 4 4 14 -17 20 -47 15 -65 24 -82 39 -73 16 10 14 64 -6 119 -16 43 -20 47 -50 47 -28 0 -33 -3 -33 -24z"></path><path id="pjPoCcnaC" d="M1080 1405 c0 -40 24 -49 34 -12 10 37 7 47 -14 47 -16 0 -20 -7 -20 -35z"></path><path id="pajuMgPRE" d="M1175 1298 c18 -116 47 -218 62 -218 18 0 16 27 -13 167 -16 77 -22 93 -37 93 -16 0 -18 -5 -12 -42z"></path><path id="pgasIbvzl" d="M1096 1207 c-10 -153 4 -288 38 -363 18 -39 38 -61 88 -97 75 -53 93 -62 241 -116 76 -28 115 -48 129 -67 42 -52 69 -73 109 -84 34 -10 143 -29 434 -80 28 -5 82 -9 120 -9 l70 0 -37 15 c-22 10 -38 24 -42 38 -7 28 -35 40 -139 61 -110 23 -119 28 -149 95 -21 48 -33 62 -63 74 -51 22 -178 36 -320 36 -134 0 -206 15 -265 54 -105 69 -150 135 -168 242 -10 58 -30 225 -35 294 -1 19 -6 -23 -11 -93z"></path><path id="pBnYkXpLR" d="M1241 1033 c14 -38 42 -83 51 -83 4 0 8 16 8 35 0 19 -4 35 -10 35 -5 0 -10 9 -10 20 0 15 -7 20 -25 20 -22 0 -24 -2 -14 -27z"></path><path id="peQQc5lO5" d="M2314 946 c-10 -14 -37 -31 -61 -38 -31 -9 -43 -18 -43 -31 0 -42 119 6 161 64 l20 29 -29 0 c-19 0 -35 -8 -48 -24z"></path><path id="pA4TDgCdC" d="M1770 931 c0 -19 5 -21 73 -21 39 0 126 -12 192 -25 144 -30 145 -30 145 -7 0 14 -21 21 -118 41 -64 13 -156 26 -204 29 -85 5 -88 4 -88 -17z"></path><path id="pUGJ2pdin" d="M1643 927 c-43 -8 -53 -14 -53 -30 0 -17 5 -18 38 -12 105 19 132 27 132 41 0 16 -37 17 -117 1z"></path><path id="pDiPmLlSs" d="M1352 899 c14 -42 198 -54 198 -13 0 10 -14 14 -47 14 -27 0 -72 3 -102 7 -44 5 -53 3 -49 -8z"></path><path id="p12IpRJoyT" d="M2521 823 c-22 -38 -57 -87 -79 -110 -22 -24 -35 -43 -28 -43 19 0 106 91 127 133 55 106 40 120 -20 20z"></path></g></g><g id="l23I5CsQBFmVbXGhjWzvotq" fill="rgb(221,134,28)" style="transform: none;"><g style="transform: none;"><path id="p19zoOen2c" d="M1718 2573 c-45 -12 -58 -19 -58 -34 0 -21 13 -23 56 -9 16 5 48 14 72 20 36 9 41 14 32 26 -15 17 -28 17 -102 -3z"></path><path id="poQBSQaj6" d="M1850 2581 c-21 -14 -3 -28 48 -36 38 -6 42 -5 42 14 0 13 -6 21 -17 21 -10 0 -27 3 -38 5 -11 3 -27 1 -35 -4z"></path><path id="pr3oFgPVp" d="M1488 2413 c-61 -67 -71 -101 -40 -140 l17 -23 26 23 c28 23 75 124 64 135 -4 4 -25 -13 -48 -38 l-41 -45 24 40 c13 22 30 48 38 58 26 30 -11 21 -40 -10z"></path><path id="p11jMtDFkh" d="M1680 2340 c-25 -7 -25 -7 5 -11 27 -4 23 -7 -40 -31 -38 -16 -121 -57 -184 -93 -63 -36 -124 -68 -135 -71 -12 -3 -32 -16 -45 -28 -28 -25 -81 -95 -81 -108 0 -24 62 -1 164 61 171 103 346 160 451 147 121 -14 319 -98 469 -199 50 -33 96 -65 101 -71 35 -37 115 -50 115 -18 0 56 -108 206 -157 218 -14 4 -67 33 -119 65 -51 33 -95 59 -98 59 -3 0 -35 14 -71 30 -36 17 -69 30 -74 30 -5 0 -11 6 -14 13 -4 11 -35 14 -134 14 -70 0 -139 -4 -153 -7z"></path><path id="p1GNHeu9wd" d="M2490 1628 c0 -92 -3 -108 -91 -488 -22 -96 -56 -159 -112 -204 -45 -36 -63 -37 -217 -12 -176 29 -220 31 -220 13 0 -11 12 -18 38 -22 20 -4 93 -18 162 -32 140 -28 199 -26 258 8 84 48 121 131 172 389 20 102 41 196 45 210 7 23 9 22 26 -20 10 -25 18 -57 18 -72 1 -34 15 -35 46 -3 29 28 29 34 10 140 -8 44 -14 86 -15 93 0 7 -13 12 -30 12 -25 0 -31 -5 -39 -32 -8 -28 -9 -23 -10 40 -1 65 -3 72 -21 72 -19 0 -20 -7 -20 -92z"></path><path id="pBTc3Jtrn" d="M1135 1677 c-5 -27 -11 -33 -33 -32 -18 0 -28 -6 -30 -19 -5 -24 14 -36 61 -36 l37 0 0 60 c0 46 -3 60 -15 60 -8 0 -17 -14 -20 -33z"></path><path id="p6yfK35SQ" d="M1102 1495 c-7 -9 -16 -38 -19 -65 -5 -41 -3 -50 10 -50 11 0 19 17 28 56 7 32 15 50 19 42 4 -7 17 -69 29 -138 43 -246 79 -351 143 -417 60 -62 148 -71 333 -35 61 12 127 24 148 27 23 4 37 11 37 20 0 22 -54 19 -200 -10 -146 -29 -178 -30 -227 -10 -19 8 -46 15 -59 15 -20 0 -24 5 -24 30 0 20 -5 30 -15 30 -9 0 -15 9 -15 24 0 13 -4 26 -8 28 -11 4 -66 234 -88 366 l-17 102 -31 0 c-17 -1 -37 -7 -44 -15z"></path><path id="pcJB5Lwfm" d="M1105 945 c10 -75 52 -161 99 -201 23 -19 83 -56 135 -81 66 -33 114 -65 161 -110 61 -57 75 -65 141 -82 41 -10 127 -22 192 -25 99 -6 117 -5 117 7 0 16 -19 23 -95 32 -27 4 -68 11 -90 18 -22 6 -42 11 -45 12 -30 7 -49 18 -45 26 4 5 0 9 -7 9 -7 0 -24 16 -38 35 -19 26 -44 41 -110 66 -47 18 -110 42 -140 53 -69 27 -182 106 -217 153 -15 19 -35 58 -45 86 l-19 52 6 -50z"></path></g></g><g id="l1EMIBrsvz8pEhbuWqk08fv" fill="rgb(221,158,46)" style="transform: none;"><g style="transform: none;"><path id="pNkauRz1W" d="M1720 2560 c0 -21 10 -24 48 -14 36 10 27 34 -13 34 -28 0 -35 -4 -35 -20z"></path><path id="pad6aPtcl" d="M1430 2303 c1 -13 29 -47 35 -42 9 10 -8 49 -21 49 -8 0 -14 -3 -14 -7z"></path><path id="piwPB0OWA" d="M1635 2221 c-110 -30 -191 -66 -316 -141 -101 -61 -139 -95 -139 -125 0 -18 59 3 116 41 126 85 196 114 343 145 87 18 97 18 154 3 78 -20 196 -69 268 -111 63 -36 200 -171 223 -218 69 -143 70 -148 56 -439 -12 -232 -11 -265 3 -297 14 -34 14 -39 -3 -65 -36 -60 -55 -69 -144 -69 -44 0 -136 4 -203 8 -120 8 -123 8 -123 -12 0 -12 3 -21 8 -21 4 0 43 -6 87 -14 145 -26 189 -31 252 -31 54 0 66 4 100 31 56 45 90 108 112 204 80 342 90 398 95 522 5 126 -4 227 -26 301 -10 35 -13 37 -20 18 -7 -19 -10 -20 -30 -9 -12 7 -27 18 -33 24 -5 6 -51 38 -101 71 -251 169 -494 234 -679 184z"></path><path id="pgZOmj24X" d="M1140 1639 c0 -16 -4 -19 -17 -14 -41 17 -51 17 -55 -2 -5 -24 33 -53 71 -53 29 0 31 2 31 39 0 25 -5 41 -15 45 -10 4 -15 -1 -15 -15z"></path><path id="p1EgocOZvW" d="M1091 1486 c-15 -61 -14 -96 3 -96 9 0 19 20 26 51 7 28 16 47 20 42 4 -4 15 -51 24 -103 31 -179 37 -200 52 -200 19 0 17 30 -14 200 l-27 145 -36 3 c-35 3 -37 2 -48 -42z"></path><path id="ppsE8WIV6" d="M1223 1101 c9 -46 35 -101 46 -101 6 0 11 16 11 35 0 19 -4 35 -10 35 -5 0 -10 14 -10 30 0 24 -4 30 -21 30 -18 0 -21 -4 -16 -29z"></path><path id="p4Nw4l3cY" d="M1628 927 c-91 -17 -108 -23 -108 -39 0 -22 -3 -22 111 1 52 10 111 22 132 25 23 4 37 12 37 21 0 20 -39 18 -172 -8z"></path><path id="pAEpxDRtU" d="M1110 910 c0 -33 60 -138 106 -183 26 -26 78 -62 114 -79 63 -30 114 -64 155 -102 34 -31 79 -56 103 -56 12 0 22 3 22 6 0 4 -33 39 -72 79 -55 54 -93 81 -153 110 -143 68 -229 137 -261 210 -7 17 -13 23 -14 15z"></path><path id="pKPvDiGuG" d="M1370 896 c0 -13 28 -26 58 -26 6 0 12 9 12 20 0 16 -7 20 -35 20 -23 0 -35 -5 -35 -14z"></path></g></g><g id="l56qjcyJ91yjt2sUrX2tNxz" fill="rgb(232,169,31)" style="transform: none;"><g style="transform: none;"><path id="p15iI9Knu9" d="M1597 2169 c-48 -10 -115 -29 -148 -43 -112 -45 -279 -156 -279 -185 0 -24 51 -8 129 39 104 62 165 85 281 105 108 19 165 11 291 -38 185 -73 319 -189 407 -352 27 -50 27 -51 33 -320 6 -299 11 -325 58 -325 l30 0 -21 46 c-20 46 -20 50 -6 303 17 289 17 287 -58 446 -23 47 -160 182 -223 218 -119 69 -291 128 -367 126 -22 -1 -78 -9 -127 -20z"></path><path id="p40i6tPQA" d="M1140 1625 c0 -27 -1 -27 -18 -12 -23 21 -48 22 -56 1 -9 -22 32 -53 72 -54 30 0 32 2 32 34 0 18 -7 39 -15 46 -13 11 -15 8 -15 -15z"></path><path id="p1EHL6NlRb" d="M1211 1153 c1 -33 34 -117 47 -121 8 -2 12 8 12 32 0 20 -4 36 -10 36 -5 0 -10 16 -10 35 0 28 -4 35 -20 35 -13 0 -20 -6 -19 -17z"></path><path id="p17WLygLSj" d="M1311 924 c16 -19 63 -44 84 -44 8 0 15 9 15 20 0 13 -7 20 -20 20 -11 0 -20 5 -20 10 0 6 -16 10 -36 10 -32 0 -35 -2 -23 -16z"></path></g></g><g id="l1Vwo2zSacsB1moXU4F8EFr" fill="rgb(239,188,41)" style="transform: none;"><g style="transform: none;"><path id="p2LjiQgGD" d="M1492 2105 c-75 -17 -152 -51 -248 -110 -68 -43 -71 -46 -82 -97 -6 -29 -14 -74 -18 -100 -6 -43 -4 -48 13 -48 14 0 22 12 32 46 17 56 60 108 115 137 37 20 55 22 171 21 147 -2 206 -15 318 -70 61 -30 91 -50 171 -114 25 -21 96 -96 110 -117 27 -40 37 -144 26 -273 -17 -217 -15 -255 20 -305 17 -24 30 -48 30 -53 0 -15 -79 -31 -180 -39 l-90 -6 0 -30 c0 -20 4 -28 13 -24 7 3 65 1 127 -3 127 -10 194 -1 235 32 26 20 26 22 21 112 -10 140 -10 186 -2 393 9 218 3 252 -60 343 -19 27 -34 54 -34 58 0 29 -169 157 -260 197 -25 11 -48 23 -51 27 -9 13 -177 38 -249 37 -36 0 -93 -7 -128 -14z"></path><path id="pL2mfzg7a" d="M1070 1627 c-1 -1 -7 -38 -15 -82 -8 -44 -15 -88 -15 -97 0 -25 37 -23 50 2 6 11 17 20 25 20 8 0 15 8 15 18 1 16 1 16 14 0 7 -10 16 -18 20 -18 13 0 6 126 -9 146 -14 18 -14 18 -15 -5 0 -22 -2 -23 -17 -9 -16 13 -52 31 -53 25z"></path><path id="p5TWihMZF" d="M1170 1358 c0 -30 13 -58 26 -58 9 0 14 12 14 35 0 28 -4 35 -20 35 -11 0 -20 -6 -20 -12z"></path><path id="p2x9Dh5yX" d="M1255 1013 c35 -83 92 -129 176 -140 33 -5 39 -3 39 13 0 15 -12 22 -53 32 -29 6 -60 12 -70 12 -11 0 -17 8 -17 25 0 16 -6 25 -15 25 -8 0 -15 9 -15 19 0 35 -12 51 -36 51 -24 0 -24 0 -9 -37z"></path><path id="pIdbntuAx" d="M1748 957 c-38 -8 -48 -15 -48 -30 0 -18 5 -19 46 -13 26 3 64 6 85 6 35 0 39 3 39 25 0 22 -4 25 -37 24 -21 -1 -59 -6 -85 -12z"></path><path id="pzByEmWV8" d="M1490 889 c0 -17 5 -20 32 -17 22 2 34 9 36 21 3 14 -4 17 -32 17 -30 0 -36 -4 -36 -21z"></path></g></g><g id="l6sNWDZs7eCwYE2eUAyhRDw" fill="rgb(234,179,56)" style="transform: none;"><g style="transform: none;"><path id="ph1IBv2pl" d="M1538 2114 c-104 -19 -169 -45 -269 -105 -98 -58 -94 -55 -103 -94 l-7 -30 24 35 c79 114 319 190 509 162 113 -17 111 -17 126 -25 6 -5 12 -5 12 0 0 4 4 4 8 -2 4 -5 34 -23 67 -39 74 -34 168 -101 215 -152 19 -20 29 -33 21 -29 -7 4 5 -15 27 -44 66 -83 80 -134 77 -283 -2 -70 -5 -131 -8 -135 -8 -13 -12 -198 -6 -240 2 -13 8 -23 14 -23 5 0 3 -5 -5 -10 -8 -5 -10 -10 -4 -10 6 0 10 -20 10 -46 -1 -56 -23 -78 -97 -93 -46 -10 -248 -16 -238 -7 2 2 45 6 94 9 83 6 203 32 192 43 -2 2 -30 -2 -63 -11 -36 -9 -101 -15 -174 -15 -152 1 -460 -54 -460 -82 0 -20 28 -19 152 8 115 25 115 25 278 22 379 -5 376 -6 405 22 27 26 47 58 59 97 5 15 1 27 -13 40 -32 30 -41 107 -41 352 0 218 -1 228 -24 278 -40 85 -92 154 -163 216 -62 53 -190 138 -217 143 -6 2 -44 14 -85 29 -92 33 -206 40 -313 19z"></path><path id="peBUulgLa" d="M1255 1951 c-42 -25 -91 -84 -75 -89 7 -3 17 4 23 14 6 11 28 36 50 57 45 42 46 45 2 18z"></path><path id="pK8mH0qpr" d="M1138 1608 c-6 -41 1 -68 18 -68 19 0 19 74 0 89 -11 9 -15 5 -18 -21z"></path><path id="pu75TO50J" d="M1070 1625 c0 -2 14 -10 31 -19 23 -12 28 -12 20 -2 -11 12 -51 29 -51 21z"></path><path id="pygXoFzry" d="M1086 1565 c27 -28 44 -32 44 -12 0 20 -21 37 -47 37 l-22 0 25 -25z"></path><path id="pamQNhOgE" d="M1059 1484 c-16 -32 -16 -34 2 -34 15 0 18 -7 16 -37 -1 -27 2 -38 14 -41 12 -2 18 7 22 35 3 21 9 53 12 71 7 28 5 32 -14 32 -15 0 -21 -7 -22 -22 -1 -21 -2 -21 -8 3 l-6 26 -16 -33z"></path><path id="p14VAfAPxb" d="M1144 1493 c2 -10 10 -44 16 -75 8 -38 16 -58 26 -58 15 0 17 23 8 83 -4 22 -12 37 -20 37 -8 0 -14 7 -14 15 0 8 -5 15 -11 15 -6 0 -8 -8 -5 -17z"></path><path id="p7deau0CY" d="M1185 1273 c19 -106 27 -133 41 -133 17 0 18 23 2 106 -9 53 -15 64 -31 64 -17 0 -18 -5 -12 -37z"></path><path id="p12dZagNyb" d="M1267 991 c3 -11 14 -27 24 -37 18 -17 19 -16 19 19 0 32 -3 37 -24 37 -19 0 -23 -4 -19 -19z"></path><path id="paqkXXlps" d="M1380 901 c0 -14 18 -23 51 -27 23 -3 29 0 29 16 0 17 -7 20 -40 20 -22 0 -40 -4 -40 -9z"></path><path id="pYr2NoiCj" d="M1120 877 c0 -4 11 -29 24 -55 30 -58 90 -122 116 -122 11 0 20 -7 20 -15 0 -18 50 -45 85 -45 43 0 28 17 -52 59 -90 47 -124 76 -164 139 -16 25 -29 43 -29 39z"></path></g></g><g id="l7CoNeHVEVjH47s2cZo3pOP" fill="rgb(101,152,218)" style="transform: none;"><g style="transform: none;"><path id="p12vdH9Udc" d="M1965 3031 c-5 -23 4 -49 38 -118 50 -99 105 -230 132 -313 10 -30 21 -57 25 -60 4 -3 10 -29 14 -57 7 -52 6 -53 -19 -53 l-26 0 21 -27 c28 -36 50 -89 50 -122 0 -15 3 -21 8 -15 4 7 41 21 82 33 155 43 310 115 439 204 81 56 202 169 241 227 15 22 -11 1 -68 -53 -51 -48 -133 -114 -182 -146 -112 -72 -309 -172 -418 -211 l-83 -30 7 35 c16 89 -67 370 -176 594 -38 77 -71 141 -74 141 -2 0 -7 -13 -11 -29z"></path><path id="p17lnBzLio" d="M1657 2983 c-14 -32 -49 -110 -77 -173 -52 -118 -120 -301 -120 -326 0 -8 8 -14 18 -14 13 0 25 23 49 93 17 50 56 148 87 217 31 69 56 133 56 142 0 10 4 18 9 18 12 0 26 39 22 65 -6 41 -19 34 -44 -22z"></path><path id="pMdYojos7" d="M735 3009 c-84 -19 -115 -21 -146 -10 -18 6 -34 9 -37 7 -9 -10 91 -202 138 -266 134 -181 370 -338 635 -421 55 -17 107 -35 116 -39 13 -7 18 -2 23 22 3 17 6 46 6 64 0 49 -27 45 -37 -6 l-8 -40 -34 50 c-32 47 -33 53 -23 88 6 20 27 62 46 92 62 98 68 112 73 170 5 54 4 57 -30 87 -21 18 -62 39 -94 48 -32 9 -148 46 -258 81 -273 87 -290 91 -370 73z"></path></g></g><g id="l1P1fDnqAn62Om3wA5pX8R0" fill="rgb(245,200,49)" style="transform: none;"><g style="transform: none;"><path id="pyxfwAEa6" d="M1420 1990 c-213 -14 -280 -95 -280 -337 0 -102 -2 -114 -13 -93 -8 16 -23 26 -40 28 -28 3 -28 3 -22 -42 6 -35 3 -52 -9 -71 -20 -30 -21 -65 -2 -65 7 0 16 -9 19 -20 3 -11 10 -20 15 -20 11 0 14 7 32 89 16 70 24 56 50 -95 35 -196 60 -294 76 -294 18 0 18 36 0 109 -34 132 -69 349 -67 420 3 83 32 190 58 213 34 28 89 37 161 26 145 -21 419 -153 483 -232 26 -31 30 -69 30 -254 1 -181 6 -207 63 -281 45 -60 50 -57 -137 -90 -59 -11 -111 -22 -116 -26 -9 -5 -32 -10 -161 -36 -31 -6 -85 -8 -125 -4 -60 5 -72 10 -80 28 -7 15 -21 23 -44 25 l-33 3 21 -29 c52 -73 179 -84 401 -34 74 16 171 33 215 37 157 13 181 16 232 30 45 13 51 18 49 39 -2 13 -14 41 -27 62 -13 22 -23 45 -21 52 2 7 -2 11 -9 10 -9 -2 -12 17 -13 62 0 133 4 221 12 217 4 -3 4 38 1 91 -4 54 -5 102 -3 107 8 21 -78 133 -142 185 -80 64 -111 84 -174 116 -79 39 -220 79 -251 71 -10 -3 -17 -1 -13 4 3 5 -3 8 -13 7 -10 0 -65 -4 -123 -8z"></path></g></g><g id="l4w0NrIp5POQw83FQS9hLVr" fill="rgb(251,212,63)" style="transform: none;"><g style="transform: none;"><path id="ps76AV342" d="M1272 1870 c-13 -6 -27 -8 -31 -5 -17 10 -54 -47 -74 -116 -30 -103 -29 -216 6 -399 36 -189 37 -190 53 -190 19 0 18 17 -10 178 -25 141 -25 162 0 219 8 17 14 36 14 42 0 6 19 11 44 11 59 0 115 -41 130 -95 9 -29 18 -41 36 -45 14 -3 32 -19 40 -35 8 -16 20 -35 27 -42 11 -13 32 -75 33 -98 1 -5 9 -28 20 -50 11 -22 20 -47 20 -55 1 -30 60 -79 159 -131 71 -38 97 -56 87 -61 -20 -11 -282 -78 -306 -78 -14 0 -20 -7 -20 -21 0 -21 3 -21 58 -15 55 7 81 12 187 41 28 7 84 19 125 25 118 19 177 38 183 60 3 11 1 20 -4 20 -4 0 -6 8 -2 18 3 9 3 14 -2 10 -7 -6 -56 58 -84 110 -17 33 -26 126 -10 116 9 -5 10 5 5 42 -15 107 -18 159 -7 144 16 -23 14 2 -7 80 -21 79 -33 97 -98 143 -96 66 -323 168 -381 170 -17 1 -30 3 -28 6 6 10 -139 10 -163 1z"></path><path id="pqSsqhyhd" d="M1102 1538 c-7 -7 -12 -20 -12 -29 0 -10 -12 -31 -26 -48 -15 -19 -23 -38 -20 -48 6 -18 44 -48 52 -41 2 2 11 39 20 81 17 78 12 111 -14 85z"></path><path id="p18u8bj3EC" d="M1230 1095 c0 -25 28 -85 39 -85 12 0 14 42 5 78 -7 25 -44 31 -44 7z"></path><path id="p0GxF4rb9" d="M1270 990 c0 -22 74 -90 108 -100 51 -14 62 -13 62 8 0 17 -58 42 -100 42 -16 0 -20 7 -20 30 0 25 -4 30 -25 30 -14 0 -25 -4 -25 -10z"></path></g></g><g id="l3Jmct1FGEHyMV2iXJUHKWp" fill="rgb(255,226,84)" style="transform: none;"><g style="transform: none;"><path id="p17NdtagQG" d="M1229 1652 c-16 -8 -29 -20 -29 -26 0 -6 -7 -24 -15 -40 -35 -66 -35 -85 -1 -276 56 -311 105 -402 229 -425 33 -7 37 -5 37 14 0 13 -6 21 -18 21 -38 0 -122 78 -122 114 0 3 24 -6 53 -19 28 -14 67 -25 86 -25 19 0 75 -5 125 -12 l90 -11 -38 -14 c-22 -7 -68 -18 -103 -25 -52 -9 -63 -15 -63 -31 0 -18 5 -19 55 -13 137 16 388 94 386 120 -1 14 -29 33 -131 85 -94 49 -151 95 -156 125 -1 6 -8 25 -15 41 -7 17 -13 32 -14 35 -1 3 -4 12 -8 20 -3 8 -11 34 -17 57 -6 23 -17 48 -24 56 -7 7 -16 22 -20 34 -8 25 -29 44 -53 47 -11 2 -22 17 -29 42 -11 41 -71 94 -105 94 -9 0 -25 3 -34 6 -13 5 -14 9 -3 15 22 14 -31 6 -63 -9z"></path><path id="p52NRbZ3H" d="M1067 1435 l-28 -24 21 -21 c27 -27 36 -25 44 11 13 66 7 72 -37 34z"></path></g></g><g id="l46e7F411H5xwabmMhTG4kH" fill="rgb(255,236,119)" style="transform: none;"><g style="transform: none;"><path id="pBK7YBiVq" d="M1064 1385 c22 -17 36 -19 36 -6 0 10 -24 21 -43 21 -7 0 -3 -7 7 -15z"></path><path id="pu8my7sgB" d="M1255 1073 c18 -100 87 -176 170 -188 52 -8 260 36 305 65 13 8 13 11 -1 25 -17 17 -168 45 -243 45 -40 0 -143 40 -185 72 -39 30 -54 24 -46 -19z"></path></g></g><g id="l6l978i4uCLKy0f8WpypEcS" fill="rgb(209,206,217)" style="transform: none;"><g style="transform: none;"><path id="pLdrXGlCE" d="M1966 3033 c-6 -22 -66 -292 -66 -299 0 -3 16 -20 35 -38 l36 -32 -66 -44 c-36 -25 -65 -48 -65 -52 0 -4 12 -10 28 -14 60 -13 158 -46 183 -62 56 -36 122 -107 145 -156 l24 -51 -4 100 c-3 78 -11 122 -36 200 -55 169 -131 345 -150 345 -25 0 2 -112 32 -131 11 -7 -65 -59 -87 -59 -26 0 -28 25 -8 112 17 70 23 83 41 86 12 2 22 5 22 8 0 8 -50 104 -54 104 -3 0 -7 -8 -10 -17z m132 -385 c-16 -9 -52 -11 -61 -1 -4 3 8 16 26 28 l32 23 8 -21 c5 -13 3 -23 -5 -29z"></path><path id="peEmE0sky" d="M1657 2973 l-26 -58 24 -3 c19 -3 27 -12 35 -45 6 -23 15 -58 20 -77 7 -26 6 -38 -4 -49 -13 -12 -21 -10 -60 15 -47 29 -57 44 -32 44 17 0 26 22 26 62 0 52 -22 26 -68 -78 -107 -245 -161 -458 -127 -507 l15 -21 0 25 c0 35 44 116 87 161 41 42 122 81 219 105 l68 17 -25 18 c-13 10 -46 33 -72 51 l-48 34 36 27 c19 15 35 35 35 44 1 26 -64 292 -71 292 -3 0 -18 -26 -32 -57z m-41 -308 c18 -14 37 -25 43 -25 6 0 11 -4 11 -10 0 -5 0 -13 0 -17 1 -4 -21 -13 -47 -19 -26 -7 -57 -15 -69 -19 -20 -6 -20 -5 -10 39 6 25 14 46 18 46 5 0 8 7 8 15 0 21 8 19 46 -10z"></path><path id="plqi4eLhG" d="M1120 877 c0 -4 11 -29 24 -56 34 -67 109 -137 185 -173 36 -17 83 -49 105 -70 89 -86 182 -114 527 -158 306 -38 349 -38 214 0 -129 37 -198 48 -370 60 -167 11 -213 25 -282 89 -30 27 -98 71 -158 101 -138 70 -180 102 -215 164 -17 28 -30 47 -30 43z"></path><path id="pS3xFdvOq" d="M2530 805 c-12 -19 -59 -69 -106 -112 -103 -93 -113 -120 -12 -32 89 78 103 94 128 142 26 47 19 48 -10 2z"></path></g></g><g id="l79HxokyJ9vfGXedqZL7GBQ" fill="rgb(224,223,232)" style="transform: none;"><g style="transform: none;"><path id="p15TKMUUig" d="M1941 2895 c-25 -109 -30 -148 -22 -163 23 -43 71 -42 138 3 49 33 52 37 42 62 -16 42 -111 233 -119 238 -4 2 -21 -60 -39 -140z m88 -51 c12 -34 12 -39 -5 -51 -21 -15 -50 -17 -58 -4 -3 5 1 32 11 60 18 57 30 56 52 -5z"></path><path id="p12xQWdBQ3" d="M1627 2900 c-32 -66 -57 -126 -57 -133 0 -8 28 -30 62 -50 54 -32 65 -35 82 -24 45 30 46 43 12 184 -17 73 -34 134 -37 138 -3 3 -31 -49 -62 -115z m76 -92 c15 -66 15 -68 -5 -68 -11 0 -32 9 -47 19 -22 16 -27 26 -23 50 2 17 8 31 12 31 4 0 13 14 20 31 16 38 22 29 43 -63z"></path><path id="pargiqCRa" d="M1552 2733 c-20 -39 -62 -166 -62 -189 0 -28 12 -30 71 -8 49 17 55 19 119 34 99 23 99 25 3 97 -113 84 -120 88 -131 66z m54 -67 c16 -12 16 -15 4 -19 -8 -3 -23 -8 -32 -11 -14 -4 -18 0 -18 19 0 28 17 32 46 11z"></path><path id="p1DdqMnVdB" d="M2065 2728 c-77 -55 -135 -101 -132 -105 8 -7 159 -15 183 -9 19 5 24 13 24 40 0 43 -19 96 -33 96 -7 0 -25 -10 -42 -22z"></path><path id="pd99qpdO7" d="M1446 2399 c-3 -17 -5 -52 -5 -78 2 -32 3 -37 6 -17 3 16 11 35 19 43 18 18 18 57 0 72 -11 9 -15 5 -20 -20z"></path><path id="pwHJsGKCK" d="M1154 804 c25 -52 106 -123 183 -160 40 -19 73 -38 73 -42 0 -4 19 -23 43 -42 l42 -35 -35 45 c-45 58 -49 60 -153 116 -83 44 -106 64 -150 124 -17 25 -17 25 -3 -6z"></path></g></g><g id="l1WpRe8cxNlSH0tEcnYFkBo" fill="rgb(246,246,251)" style="transform: none;"><g style="transform: none;"><path id="pYTYyouTE" d="M1691 2978 c-1 -9 -10 -20 -21 -23 -11 -4 -18 -11 -15 -16 4 -5 2 -9 -3 -9 -7 0 -53 -90 -79 -156 -2 -6 15 -23 38 -38 50 -33 99 -50 99 -34 0 6 3 8 7 5 12 -12 33 15 32 42 0 32 -56 253 -58 229z"></path><path id="p12q7axXUd" d="M1980 2946 c0 -9 -4 -16 -8 -16 -13 0 -42 -96 -42 -136 0 -44 25 -58 81 -45 23 5 45 13 50 18 23 23 0 139 -31 158 -6 4 -7 11 -4 17 4 7 2 8 -5 4 -6 -4 -18 -2 -26 4 -12 10 -15 9 -15 -4z"></path><path id="pE1T2XqrB" d="M1549 2719 c-6 -12 -19 -45 -29 -75 -18 -52 -18 -53 0 -59 10 -3 27 -2 37 4 10 5 44 18 76 28 32 10 59 22 60 28 2 9 -110 94 -125 95 -4 0 -12 -9 -19 -21z"></path><path id="pZVWh23f1" d="M2063 2719 c-39 -25 -40 -27 -10 -24 12 1 27 3 34 4 7 0 17 10 23 21 14 27 -5 26 -47 -1z"></path></g></g></svg>
